<svg width="358" height="136" viewBox="0 0 358 136" fill="none" xmlns="http://www.w3.org/2000/svg">
<rect width="120.716" height="107.393" rx="5" fill="#FFE814"/>
<path d="M134.854 63.6592V98H128.951V63.6592H134.854ZM128.507 54.5503C128.507 53.5981 128.792 52.7941 129.364 52.1382C129.956 51.4823 130.824 51.1543 131.966 51.1543C133.088 51.1543 133.945 51.4823 134.537 52.1382C135.151 52.7941 135.458 53.5981 135.458 54.5503C135.458 55.4601 135.151 56.243 134.537 56.8989C133.945 57.5337 133.088 57.8511 131.966 57.8511C130.824 57.8511 129.956 57.5337 129.364 56.8989C128.792 56.243 128.507 55.4601 128.507 54.5503ZM150.66 49.25V98H144.757V49.25H150.66ZM170.528 92.6997L179.923 63.6592H185.921L173.575 98H169.64L170.528 92.6997ZM162.689 63.6592L172.369 92.8584L173.036 98H169.1L156.659 63.6592H162.689ZM211.312 92.1284V74.4502C211.312 73.096 211.037 71.9217 210.487 70.9272C209.958 69.9116 209.154 69.1287 208.075 68.5786C206.996 68.0285 205.663 67.7534 204.076 67.7534C202.595 67.7534 201.293 68.0073 200.172 68.5151C199.072 69.0229 198.204 69.6895 197.569 70.5146C196.956 71.3398 196.649 72.2285 196.649 73.1807H190.777C190.777 71.9535 191.095 70.7368 191.729 69.5308C192.364 68.3247 193.274 67.235 194.459 66.2617C195.665 65.2673 197.104 64.4844 198.775 63.9131C200.468 63.3206 202.351 63.0244 204.425 63.0244C206.922 63.0244 209.122 63.4476 211.026 64.2939C212.952 65.1403 214.454 66.4204 215.533 68.1343C216.633 69.827 217.184 71.9535 217.184 74.5137V90.5098C217.184 91.6523 217.279 92.869 217.469 94.1597C217.681 95.4504 217.988 96.5612 218.39 97.4922V98H212.264C211.968 97.3229 211.735 96.4237 211.566 95.3022C211.397 94.1597 211.312 93.1017 211.312 92.1284ZM212.328 77.1797L212.391 81.3057H206.456C204.785 81.3057 203.293 81.4432 201.981 81.7183C200.669 81.9722 199.569 82.3636 198.68 82.8926C197.792 83.4215 197.114 84.0881 196.649 84.8921C196.183 85.675 195.951 86.5954 195.951 87.6533C195.951 88.7324 196.194 89.7163 196.681 90.605C197.167 91.4937 197.897 92.2025 198.871 92.7314C199.865 93.2393 201.082 93.4932 202.521 93.4932C204.319 93.4932 205.906 93.1123 207.281 92.3506C208.657 91.5889 209.746 90.6579 210.55 89.5576C211.375 88.4574 211.82 87.3888 211.883 86.3521L214.391 89.1768C214.243 90.0654 213.84 91.0493 213.185 92.1284C212.529 93.2075 211.651 94.2443 210.55 95.2388C209.471 96.2121 208.181 97.0267 206.678 97.6826C205.197 98.3174 203.526 98.6348 201.664 98.6348C199.336 98.6348 197.294 98.1799 195.538 97.27C193.803 96.3602 192.449 95.1436 191.476 93.6201C190.523 92.0755 190.047 90.3511 190.047 88.4468C190.047 86.606 190.407 84.9873 191.126 83.5908C191.846 82.1732 192.883 80.9989 194.237 80.0679C195.591 79.1157 197.22 78.3963 199.125 77.9097C201.029 77.423 203.155 77.1797 205.504 77.1797H212.328Z" fill="white"/>
<path d="M36.9353 40.6384V97.5134H25.2166V40.6384H36.9353ZM59.5916 64.9353V74.0759H33.7322V64.9353H59.5916ZM62.3259 40.6384V49.8181H33.7322V40.6384H62.3259ZM98.7322 82.6306C98.7322 81.615 98.5759 80.7035 98.2634 79.8962C97.977 79.0629 97.4301 78.3077 96.6228 77.6306C95.8155 76.9275 94.6827 76.2374 93.2244 75.5603C91.766 74.8832 89.878 74.1801 87.5603 73.4509C84.9822 72.6176 82.5343 71.6801 80.2166 70.6384C77.9249 69.5968 75.8936 68.3858 74.1228 67.0056C72.378 65.5994 70.9978 63.9718 69.9822 62.1228C68.9926 60.2738 68.4978 58.1254 68.4978 55.6775C68.4978 53.3077 69.0186 51.1593 70.0603 49.2322C71.102 47.2791 72.5603 45.6124 74.4353 44.2322C76.3103 42.8259 78.5238 41.7452 81.0759 40.99C83.6541 40.2348 86.4796 39.8572 89.5525 39.8572C93.7452 39.8572 97.4041 40.6124 100.529 42.1228C103.654 43.6332 106.076 45.7035 107.795 48.3337C109.539 50.9639 110.412 53.9718 110.412 57.3572H98.7712C98.7712 55.6905 98.4197 54.2322 97.7166 52.9822C97.0395 51.7061 95.9978 50.7035 94.5916 49.9744C93.2113 49.2452 91.4666 48.8806 89.3572 48.8806C87.3259 48.8806 85.6332 49.1931 84.2791 49.8181C82.9249 50.4171 81.9093 51.2374 81.2322 52.2791C80.5551 53.2947 80.2166 54.4405 80.2166 55.7166C80.2166 56.6801 80.4509 57.5525 80.9197 58.3337C81.4145 59.115 82.1436 59.8442 83.1072 60.5212C84.0707 61.1983 85.2556 61.8363 86.6619 62.4353C88.0681 63.0343 89.6957 63.6202 91.5447 64.1931C94.6436 65.1306 97.365 66.1853 99.7087 67.3572C102.079 68.5291 104.058 69.8442 105.646 71.3025C107.235 72.7608 108.433 74.4145 109.24 76.2634C110.047 78.1124 110.451 80.2087 110.451 82.5525C110.451 85.0264 109.969 87.24 109.006 89.1931C108.042 91.1462 106.649 92.7999 104.826 94.1541C103.003 95.5082 100.829 96.5369 98.3025 97.24C95.7764 97.9431 92.9509 98.2947 89.8259 98.2947C87.0134 98.2947 84.24 97.9301 81.5056 97.2009C78.7712 96.4457 76.2843 95.3129 74.0447 93.8025C71.8311 92.2921 70.0603 90.365 68.7322 88.0212C67.4041 85.6775 66.74 82.9041 66.74 79.7009H78.4978C78.4978 81.4718 78.7712 82.9692 79.3181 84.1931C79.865 85.4171 80.6332 86.4067 81.6228 87.1619C82.6384 87.9171 83.8363 88.4639 85.2166 88.8025C86.6228 89.141 88.1593 89.3103 89.8259 89.3103C91.8572 89.3103 93.5238 89.0238 94.8259 88.4509C96.1541 87.878 97.1306 87.0837 97.7556 86.0681C98.4067 85.0525 98.7322 83.9067 98.7322 82.6306Z" fill="#030303"/>
</svg>
