<svg width="39" height="39" viewBox="0 0 39 39" fill="none" xmlns="http://www.w3.org/2000/svg">
<path fill-rule="evenodd" clip-rule="evenodd" d="M19.4194 0.0645447C8.69017 0.0645447 0 8.99671 0 20.0247C0 28.8571 5.5588 36.3172 13.278 38.9619C14.249 39.1365 14.6131 38.5377 14.6131 38.0138C14.6131 37.5397 14.5888 35.9679 14.5888 34.2962C9.70969 35.2194 8.44743 33.0736 8.05904 31.9509C7.84058 31.377 6.89388 29.6056 6.06856 29.1315C5.38888 28.7573 4.41791 27.8341 6.04428 27.8091C7.57356 27.7842 8.6659 29.2563 9.03001 29.8551C10.7778 32.874 13.5693 32.0257 14.6859 31.5018C14.8558 30.2044 15.3656 29.3311 15.9239 28.8321C11.6031 28.3331 7.08808 26.6115 7.08808 18.9768C7.08808 16.8061 7.84058 15.0097 9.07856 13.6125C8.88437 13.1135 8.20469 11.0676 9.27276 8.32306C9.27276 8.32306 10.8991 7.7991 14.6131 10.369C16.1666 9.91987 17.8173 9.69531 19.4679 9.69531C21.1186 9.69531 22.7692 9.91987 24.3228 10.369C28.0367 7.77415 29.6631 8.32306 29.6631 8.32306C30.7312 11.0676 30.0515 13.1135 29.8573 13.6125C31.0953 15.0097 31.8478 16.7812 31.8478 18.9768C31.8478 26.6365 27.3085 28.3331 22.9877 28.8321C23.6916 29.4559 24.2985 30.6535 24.2985 32.5247C24.2985 35.1944 24.2742 37.3401 24.2742 38.0138C24.2742 38.5377 24.6383 39.1615 25.6093 38.9619C29.4643 37.6241 32.8142 35.0774 35.1874 31.6804C37.5606 28.2833 38.8376 24.2068 38.8388 20.0247C38.8388 8.99671 30.1486 0.0645447 19.4194 0.0645447Z" fill="#A7A7A7"/>
</svg>
