<svg width="39" height="40" viewBox="0 0 39 40" fill="none" xmlns="http://www.w3.org/2000/svg">
<path d="M19.5804 0.79834C9.28426 0.79834 0.937805 9.37721 0.937805 19.9601C0.937805 30.5429 9.28426 39.1218 19.5804 39.1218C29.8766 39.1218 38.223 30.5429 38.223 19.9601C38.223 9.37721 29.8766 0.79834 19.5804 0.79834ZM15.0169 27.9022H11.2417V15.4152H15.0169V27.9022ZM13.106 13.8822C11.9136 13.8822 11.1427 13.0139 11.1427 11.9401C11.1427 10.8443 11.9369 10.002 13.1545 10.002C14.3721 10.002 15.1178 10.8443 15.1411 11.9401C15.1411 13.0139 14.3721 13.8822 13.106 13.8822ZM28.8046 27.9022H25.0295V20.982C25.0295 19.3713 24.4819 18.2774 23.1167 18.2774C22.0739 18.2774 21.4544 19.018 21.1806 19.7305C21.0796 19.984 21.0543 20.3433 21.0543 20.7006V27.9002H17.2773V19.3972C17.2773 17.8383 17.2287 16.5349 17.1782 15.4132H20.4582L20.631 17.1477H20.7067C21.2039 16.3333 22.4215 15.1317 24.4586 15.1317C26.9423 15.1317 28.8046 16.8423 28.8046 20.519V27.9022V27.9022Z" fill="#A7A7A7"/>
</svg>
